<svg width="61" height="61" viewBox="0 0 61 61" fill="none" xmlns="http://www.w3.org/2000/svg">
    <path d="M0 5C0 2.23858 2.23858 0 5 0H56C58.7614 0 61 2.23858 61 5V56C61 58.7614 58.7614 61 56 61H5C2.23858 61 0 58.7614 0 56V5Z" fill="#F3F3F3" />
    <path d="M53 24.9394V24.2537C53 21.0369 50.2128 18.0205 43.6271 18.0205H33.6051L25.4874 43H40.9717C43.5113 42.9953 45.9449 42.3115 47.7407 41.0981C49.5366 39.8846 50.5485 38.2402 50.5555 36.5242V35.7651C50.5534 34.7544 50.2014 33.7582 49.5275 32.856C48.8536 31.9537 47.8765 31.1706 46.6745 30.5693C48.4936 30.2258 50.0964 29.4896 51.2385 28.4731C52.3806 27.4566 52.9992 26.2156 53 24.9394ZM44.4573 36.0545C44.0092 39.7075 37.8682 40.1884 32.3861 39.7699L34.8076 32.3368H38.4316C40.4215 32.339 44.902 32.4659 44.4606 36.0545H44.4573ZM47.7881 25.1464C47.34 28.7995 41.199 29.2803 35.7169 28.8618L38.1384 21.4243H41.7624C43.7523 21.4243 48.2196 21.5445 47.7881 25.1419V25.1464ZM23.8895 21.4287C23.5974 21.4154 23.3009 21.4087 23 21.4087C17.6365 21.4087 13.4821 23.1674 13.4821 25.8165C13.4821 28.1405 16.8293 30.1173 21.2704 30.5559L20.4731 33.579C11.7558 33.1471 8 29.4918 8 25.8053C8 21.6603 14.1772 18.0139 22.5651 18.0139C23.1384 18.0139 24.3277 17.9827 24.8713 18.0139L23.8895 21.4287Z" fill="#1F4394" />
    <path d="M23.6024 21.4037L24.6324 18H30L28.97 21.4104L23.6024 21.4037ZM26.2578 30.5479L22.3676 43H17L20.9186 30.5479H26.2578Z" fill="#FEB836" />
</svg>