<svg width="61" height="61" viewBox="0 0 61 61" fill="none" xmlns="http://www.w3.org/2000/svg">
<path d="M0 5C0 2.23858 2.23858 0 5 0H56C58.7614 0 61 2.23858 61 5V56C61 58.7614 58.7614 61 56 61H5C2.23858 61 0 58.7614 0 56V5Z" fill="#F3F3F3"/>
<path d="M44.8697 34.0534C38.5587 37.539 33.1004 39.6697 28.4823 40.7456L28.4698 37.7807L21.7888 39.502L21.7762 41.622C7.44549 41.7737 5.50797 28.7533 15.2959 20.1271C8.74031 32.9881 31.0814 30.8867 40.6874 32.0848C43.2206 32.401 44.8697 32.9456 44.8697 34.0534Z" fill="#FECC0B"/>
<path d="M51.2183 42.3819V43.9493L47.0577 45.0221L47.0605 43.4538L51.2183 42.3819Z" fill="#22297C"/>
<path d="M29.429 47.4532V49.1696L25.1777 50.2666V48.5506L29.429 47.4532Z" fill="#22297C"/>
<path d="M24.4913 48.8975V50.6137L20.24 51.711V49.9947L24.4913 48.8975Z" fill="#22297C"/>
<path d="M53.0994 35.1638V38.3372C53.0994 38.935 52.4724 39.6879 51.0468 40.1231L45.2615 41.6145V46.3907C45.2223 47.3206 44.3602 47.7855 43.6554 48.0195L36.6995 49.8133C36.6995 49.8133 31.9507 51.041 31.9083 51.0487C30.938 51.2283 30.5593 50.8239 30.5079 50.4424V47.1752L36.6998 45.5812V47.4978C36.6998 48.0735 38.8351 47.935 38.8539 47.138V38.8386L45.1584 37.2129V39.317C45.5493 39.9427 47.0517 39.7657 47.0646 38.9129V36.7212L53.0994 35.1638Z" fill="#22297C"/>
<path d="M45.3399 33.5432C54.7453 27.4328 60.7021 15.8311 5 11.4927C53.7013 -7.10409 70.6311 18.6658 45.3399 33.5432Z" fill="#22297C"/>
<path d="M36.6995 39.3932V43.0435C36.6995 43.4261 36.2759 43.9574 35.4831 44.1354L25.1778 46.7921L24.4912 46.9701L15.6 49.2628C14.5873 49.4036 13.5966 49.1061 13.4399 48.4658V45.392L20.0237 43.6944V46.0748C20.1334 46.4521 21.6884 46.3511 21.748 45.7427L21.7762 41.622L21.7888 39.502L28.4698 37.7807L28.4823 40.7456L28.498 43.7345C28.5293 44.2311 30.1533 43.9258 30.147 43.3281L30.1345 41.0855L30.5076 40.9902L36.6995 39.3932Z" fill="#22297C"/>
<path d="M10.9888 56.9498L12.0281 54.3725H12.5331L13.5724 56.9498H13.1398L12.8601 56.2296H11.6822L11.4026 56.9498H10.9888ZM12.7466 55.9371L12.2704 54.7219L11.7964 55.9371H12.7466Z" fill="#22297C"/>
<path d="M16.6273 56.9498H14.8406V54.3725H15.2507V56.6453H16.6276L16.6273 56.9498Z" fill="#22297C"/>
<path d="M18.9028 57C18.6849 57 18.4852 56.9721 18.3046 56.9168C18.1237 56.8616 17.9685 56.7774 17.8387 56.6642C17.7089 56.55 17.6096 56.4086 17.5406 56.2399C17.4716 56.0715 17.4371 55.8778 17.4371 55.6584C17.4371 55.4509 17.4719 55.2649 17.5415 55.1002C17.6111 54.9358 17.7108 54.7955 17.8406 54.6786C17.966 54.5654 18.1209 54.4783 18.3043 54.4174C18.4877 54.3563 18.6887 54.3255 18.9066 54.3255C19.0103 54.3255 19.1094 54.3319 19.2047 54.3444C19.3 54.3574 19.3909 54.3744 19.4781 54.3964C19.5471 54.4137 19.6242 54.4376 19.7088 54.4684C19.7938 54.499 19.8625 54.5253 19.9148 54.5471V54.961H19.8797C19.8286 54.9227 19.7759 54.8869 19.7214 54.8529C19.6668 54.8189 19.59 54.7819 19.4906 54.7429C19.4079 54.7083 19.3126 54.6794 19.2047 54.6565C19.0972 54.6332 18.9812 54.6217 18.857 54.6217C18.5601 54.6217 18.3206 54.7153 18.1375 54.9023C17.9544 55.0893 17.8632 55.338 17.8632 55.6483C17.8632 55.8215 17.8873 55.9727 17.9356 56.1018C17.9839 56.2312 18.0535 56.3409 18.1447 56.4307C18.2331 56.5197 18.3397 56.5874 18.4648 56.6342C18.5899 56.6809 18.7301 56.7043 18.8862 56.7043C19.0022 56.7043 19.1172 56.6977 19.232 56.6836C19.3464 56.6698 19.443 56.6491 19.5217 56.6214V55.9551H18.8097V55.6536H19.9277V56.779C19.8753 56.7984 19.8051 56.8233 19.7176 56.8531C19.6298 56.8831 19.548 56.9067 19.4721 56.9243C19.3712 56.9498 19.2803 56.9687 19.1988 56.9814C19.1172 56.9942 19.0188 57 18.9028 57Z" fill="#22297C"/>
<path d="M21.9235 54.677V55.3831H23.3378V55.6876H21.9235V56.6451H23.4412V56.9495H21.5137V54.3725H22.1138L22.4248 53.8117L22.6781 53.9453L22.4195 54.3725H23.4412V54.677H21.9235Z" fill="#22297C"/>
<path d="M26.7237 56.9498H26.1917L25.2145 55.9251H24.7464V56.9498H24.3363V54.3725H25.1314C25.3079 54.3725 25.4562 54.3802 25.5756 54.3967C25.6951 54.4129 25.8086 54.4504 25.9161 54.5091C26.0237 54.567 26.1089 54.6414 26.1716 54.7325C26.2343 54.8236 26.266 54.9368 26.266 55.0718C26.266 55.2609 26.2086 55.4193 26.0942 55.546C25.9798 55.6727 25.8236 55.767 25.6261 55.8281L26.7237 56.9498ZM25.8374 55.0975C25.8374 55.0226 25.8214 54.9559 25.7898 54.8975C25.7578 54.8393 25.7089 54.7918 25.6427 54.7548C25.5847 54.7227 25.517 54.6998 25.4399 54.6863C25.3625 54.6733 25.2665 54.6666 25.1521 54.6666H24.7464V55.6395H25.1066C25.2239 55.6395 25.3295 55.6307 25.4233 55.6132C25.517 55.5957 25.5973 55.5601 25.6634 55.5061C25.7227 55.4573 25.7666 55.3999 25.7948 55.3329C25.8233 55.266 25.8374 55.1876 25.8374 55.0975Z" fill="#22297C"/>
<path d="M27.9988 56.9498H27.5906V54.6355L27.5922 54.3725H28.0038L28.0007 54.6355V56.6868L27.9988 56.9498Z" fill="#22297C"/>
<path d="M29.4372 56.9498V54.3725H31.3647V54.677H29.847V55.3831H31.2612V55.6876H29.847V56.6451H31.3647V56.9495L29.4372 56.9498Z" fill="#22297C"/>
<path d="M36.9265 55.0068C36.9265 55.1354 36.8973 55.2579 36.839 55.3743C36.78 55.4904 36.696 55.5873 36.586 55.6654C36.5183 55.7135 36.4443 55.7579 36.3637 55.7988C36.2828 55.8394 36.1935 55.874 36.096 55.9027C35.9978 55.9311 35.8922 55.9534 35.7774 55.9696C35.6627 55.9858 35.5351 55.9935 35.3927 55.9935H34.8707V56.8965H33.875V54.1354H35.4141C35.6426 54.1354 35.8401 54.1501 36.0063 54.179C36.1725 54.208 36.3229 54.2539 36.4574 54.3174C36.6067 54.3865 36.7221 54.4787 36.8036 54.5945C36.8857 54.7101 36.9265 54.8474 36.9265 55.0068ZM35.9044 55.0236C35.9044 54.9457 35.8774 54.8788 35.8241 54.8225C35.7708 54.7661 35.7072 54.7279 35.6326 54.7064C35.5385 54.6782 35.4486 54.6617 35.3627 54.6572C35.2764 54.6527 35.1598 54.6508 35.0125 54.6508H34.8714V55.4779H34.9407C35.0347 55.4779 35.1234 55.4771 35.2068 55.4757C35.2902 55.4747 35.363 55.4702 35.425 55.4627C35.4783 55.4566 35.5348 55.4447 35.594 55.4266C35.6533 55.4085 35.6994 55.3883 35.7313 55.366C35.7988 55.3203 35.8445 55.2728 35.8687 55.2234C35.8922 55.1745 35.9044 55.1075 35.9044 55.0236Z" fill="#22297C"/>
<path d="M41.3831 55.5169C41.3831 55.9632 41.2116 56.3142 40.8689 56.57C40.5262 56.8261 40.0566 56.9537 39.4606 56.9537C38.8624 56.9537 38.3931 56.8245 38.052 56.5655C37.7115 56.3062 37.541 55.9569 37.541 55.5169C37.541 55.073 37.7115 54.7223 38.052 54.4646C38.3931 54.2066 38.8624 54.0781 39.4606 54.0781C40.0566 54.0781 40.5262 54.2061 40.8689 54.4625C41.2116 54.7194 41.3831 55.0706 41.3831 55.5169ZM40.3551 55.5148C40.3551 55.3506 40.3309 55.2103 40.2823 55.095C40.2334 54.9792 40.1682 54.8844 40.0864 54.8102C40.0014 54.7351 39.9052 54.6811 39.7976 54.6482C39.6901 54.6155 39.5788 54.599 39.4637 54.599C39.3412 54.599 39.2302 54.6142 39.1305 54.6445C39.0314 54.6747 38.9355 54.7287 38.8433 54.8065C38.7612 54.8783 38.6953 54.9736 38.6448 55.0921C38.594 55.2106 38.569 55.3522 38.569 55.5169C38.569 55.6862 38.5928 55.8267 38.6408 55.9388C38.6887 56.0506 38.7546 56.1442 38.838 56.2196C38.9229 56.2964 39.0198 56.3509 39.1283 56.3838C39.2368 56.4165 39.3481 56.4329 39.4637 56.4329C39.5807 56.4329 39.6942 56.4154 39.8042 56.3801C39.9146 56.345 40.0093 56.2903 40.0892 56.2162C40.1745 56.1357 40.24 56.0424 40.2861 55.9353C40.3322 55.828 40.3551 55.6883 40.3551 55.5148Z" fill="#22297C"/>
<path d="M43.5096 56.9466C43.2058 56.9466 42.9394 56.9264 42.7092 56.8855C42.4797 56.8448 42.2659 56.7941 42.069 56.7335V56.077H42.1593C42.3584 56.1942 42.5776 56.2845 42.8171 56.348C43.0569 56.4107 43.2892 56.4423 43.5147 56.4423C43.5717 56.4423 43.6467 56.4381 43.7401 56.4293C43.8332 56.4206 43.9078 56.407 43.9649 56.3884C44.0342 56.3677 44.0928 56.3382 44.1407 56.3005C44.1887 56.2627 44.2125 56.2131 44.2125 56.1512C44.2125 56.0818 44.1737 56.0255 44.0953 55.9825C44.0172 55.9392 43.9241 55.9078 43.8159 55.8879C43.6805 55.8632 43.5366 55.8395 43.383 55.8175C43.2294 55.7952 43.0861 55.7678 42.9532 55.7357C42.6462 55.6602 42.4258 55.559 42.2932 55.4315C42.1596 55.3042 42.0932 55.1448 42.0932 54.953C42.0932 54.6945 42.2503 54.4854 42.5644 54.3255C42.8785 54.165 43.2711 54.0853 43.7413 54.0853C43.9774 54.0853 44.2122 54.1021 44.4455 54.1353C44.6787 54.1685 44.8875 54.2139 45.0725 54.2708V54.9012H44.9847C44.8374 54.8133 44.6574 54.7391 44.4455 54.6786C44.2332 54.618 44.0157 54.5877 43.7918 54.5877C43.705 54.5877 43.6269 54.5922 43.5576 54.6007C43.4883 54.6092 43.4156 54.626 43.3391 54.6507C43.2773 54.6703 43.2234 54.7001 43.1779 54.7389C43.1328 54.7777 43.1102 54.8215 43.1102 54.8696C43.1102 54.94 43.146 54.9958 43.2181 55.0372C43.2902 55.0787 43.4291 55.1161 43.6347 55.1493C43.768 55.1706 43.8962 55.1908 44.0194 55.2104C44.1433 55.2301 44.2746 55.2577 44.4151 55.2923C44.69 55.3616 44.8944 55.4543 45.0286 55.5712C45.1628 55.6881 45.2299 55.8425 45.2299 56.034C45.2299 56.3084 45.075 56.5289 44.7656 56.6958C44.4552 56.8629 44.0367 56.9466 43.5096 56.9466Z" fill="#22297C"/>
<path d="M46.8125 56.8963V54.662H45.6412V54.1354H48.9798V54.662H47.8086V56.8963H46.8125Z" fill="#22297C"/>
<path d="M49.7034 56.8963V54.1352H52.3846V54.6617H50.6938V55.1455H52.2514V55.6721H50.6938V56.3692H52.3846V56.8957L49.7034 56.8963Z" fill="#22297C"/>
</svg>
